<?xml version="1.0" encoding="utf-8"?>
<!-- Generator: Adobe Illustrator 19.2.1, SVG Export Plug-In . SVG Version: 6.00 Build 0)  -->
<svg version="1.1" id="Layer_1" xmlns="http://www.w3.org/2000/svg" xmlns:xlink="http://www.w3.org/1999/xlink" x="0px" y="0px"
	 viewBox="0 0 24 24" style="enable-background:new 0 0 24 24;" xml:space="preserve">
<style type="text/css">
	.st0{fill:#FFFFFF;}
	.st1{fill:#3C5A98;}
	.st2{fill:#EEEEEE;}
</style>
<rect x="7" y="2" class="st0" width="14" height="22"/>
<path class="st1" d="M0,2.1v19.8C0,23.1,0.9,24,2.1,24h10.7v-9.3H9.7v-3.8h3.1V7.8c0-2.3,1.9-4.2,4.2-4.2h3.3V7H18
	c-0.7,0-1.3,0.6-1.3,1.3v2.6h3.6l-0.5,3.8h-3.1V24H22c1.2,0,2.1-0.9,2.1-2.1V2.1C24,0.9,23.1,0,21.9,0H2.1C0.9,0,0,0.9,0,2.1z"/>
<path class="st2" d="M-3,15L-3,15L-3,15z"/>
</svg>
