<?xml version="1.0" encoding="utf-8"?>
<!-- Generator: Adobe Illustrator 19.2.1, SVG Export Plug-In . SVG Version: 6.00 Build 0)  -->
<svg version="1.1" xmlns="http://www.w3.org/2000/svg" xmlns:xlink="http://www.w3.org/1999/xlink" x="0px" y="0px"
	 viewBox="0 0 720 285" style="enable-background:new 0 0 720 285;" xml:space="preserve">
<style type="text/css">
	.st0{fill:#124C8F;}
	.st1{fill:#FFFFFF;}
	.st2{fill:none;stroke:#003366;stroke-width:0.25;}
</style>
<g id="Layer_2">
	<rect x="-11" y="-12" class="st0" width="739" height="307"/>
</g>
<g id="Layer_1" inkscape:output_extension="org.inkscape.output.svg.inkscape" inkscape:version="0.45.1" sodipodi:docname="FDICLogo.svg" sodipodi:version="0.32" xmlns:cc="http://web.resource.org/cc/" xmlns:dc="http://purl.org/dc/elements/1.1/" xmlns:inkscape="http://www.inkscape.org/namespaces/inkscape" xmlns:rdf="http://www.w3.org/1999/02/22-rdf-syntax-ns#" xmlns:sodipodi="http://sodipodi.sourceforge.net/DTD/sodipodi-0.dtd" xmlns:svg="http://www.w3.org/2000/svg">
	
		<sodipodi:namedview  bordercolor="#666666" borderopacity="1.0" gridtolerance="10.0" guidetolerance="10.0" height="285px" id="base" inkscape:current-layer="Layer_1" inkscape:cx="363.53833" inkscape:cy="136.68503" inkscape:pageopacity="0.0" inkscape:pageshadow="2" inkscape:showpageshadow="false" inkscape:window-height="601" inkscape:window-width="777" inkscape:window-x="89" inkscape:window-y="25" inkscape:zoom="0.68965216" objecttolerance="10.0" pagecolor="#ffffff" width="720px">
		</sodipodi:namedview>
	<polygon id="polygon3" class="st1" points="76.8,284.2 0,284.2 0,1.5 158,1.5 158,75.4 76.8,75.4 76.8,121.2 153.3,121.2 
		153.3,195.1 76.8,195.1 	"/>
	<path id="path5" class="st1" d="M410.3,142.7C410.3,13.2,294.1,1.5,246,1.5h-77.4V284H246l-0.1-73.6V74.2c47.6,0,88.1,17.6,88.1,68
		s-40.5,68-88.1,68L246,284C305.8,284,410.3,272.5,410.3,142.7z"/>
	<rect id="rect7" x="423.6" y="0.9" class="st1" width="76.8" height="283.3"/>
	<path id="path9" class="st1" d="M657.2,209.4c-36.9,0-67.4-30.1-67.4-66.9s30.5-66.9,67.4-66.9c33.6,0,51.2,17.9,62.8,41.5V15.6
		c0,0-34-15.3-65.7-15.3c-70.4,0-146.7,64.7-146.7,142.2c0,94.8,72.7,142.2,146.7,142.2c31.7,0,65.7-15.2,65.7-15.2V168.9
		C706.1,192.8,690.6,209.4,657.2,209.4z"/>
	
		<circle id="circle13" sodipodi:cx="71.612" sodipodi:cy="15.478" sodipodi:rx="4.395" sodipodi:ry="4.395" class="st2" cx="658.4" cy="142.6" r="40.4">
	</circle>
	
		<circle id="circle15" sodipodi:cx="71.571999" sodipodi:cy="15.494" sodipodi:rx="6.3470001" sodipodi:ry="6.3470001" class="st2" cx="658.1" cy="142.8" r="58.4">
	</circle>
	<g id="g17">
		<polygon id="polygon19" class="st1" points="644.8,109.5 644.8,117.1 643.1,117.1 643.1,111.3 642.5,111.3 643.2,109.5 		"/>
		<path id="path21" class="st1" d="M648.6,111.8c0,1.6,1.5,2.9,3.3,2.9c0.7,0,1.4-0.2,2-0.6c-1,2.6-3.7,1.5-4.3,1.3l-0.7,1.4
			c0.9,0.9,6.7,1.5,6.7-4.1c0-0.6-0.5-3.7-3.7-3.7v1.4c0.9,0,1.9,0.7,1.9,1.5s-0.9,1.5-1.9,1.5c-0.9,0-1.7-0.7-1.7-1.5
			s0.8-1.5,1.7-1.5V109C650.1,109,648.6,110.3,648.6,111.8z"/>
		<path id="path23" class="st1" d="M660.7,117.5c-1.7,0-2.7-0.8-3-1.1l1-1c0.5,0.3,1.3,0.8,1.8,0.8c0.6,0,1.6-0.2,1.6-1.1
			c0-0.4-0.4-1.1-2-0.9v-1.3c1.7,0.1,2.1-0.5,2.1-1s-0.6-1-1.4-1c-0.6,0-1.2,0.3-1.7,0.9l-1.1-1.1c0.5-0.8,1.5-1.3,2.7-1.3
			c1.7,0,2.9,1,2.9,2.3c0,0.7-0.3,1.3-0.9,1.7c0.7,0.4,0.9,1.2,0.9,1.7C663.7,116.3,662.5,117.5,660.7,117.5z"/>
		<path id="path25" class="st1" d="M669,117.5c-1.7,0-2.7-0.8-3-1.1l1-1c0.5,0.3,1.3,0.8,1.8,0.8c0.6,0,1.6-0.2,1.6-1.1
			c0-0.4-0.4-1.1-2-0.9v-1.3c1.7,0.1,2.1-0.5,2.1-1s-0.6-1-1.4-1c-0.6,0-1.2,0.3-1.7,0.9l-1.1-1.1c0.5-0.8,1.5-1.3,2.7-1.3
			c1.7,0,3,1,3,2.3c0,0.7-0.3,1.3-0.9,1.7c0.6,0.4,0.9,1.2,0.9,1.7C672,116.3,670.8,117.5,669,117.5z"/>
		<path id="path27" class="st1" d="M644.6,167.2V163h-0.8v5h2.7v-1.9h1.4v1.9h2.7v-5h1.3c1.5,0,1.5,0.8,2.5,0.8c0.7,0,1-0.8,1.5-0.8
			s0.7,1,1.4,1s0.9-1,1.4-1s0.8,0.8,1.5,0.8c1,0,1.3-0.8,2.8-0.8c0.8,0,1.3,0.4,1.3,1.3c0,1.7,1.3,3,3,3s3-1.3,3-3V160
			c0-1.7-1.3-3-3-3v1c1,0,1.8,0.8,1.8,1.8c0,1.6-0.7,2.3-0.7,2.3s0.7,0.7,0.7,2.3c0,1-0.8,1.8-1.8,1.8s-1.8-0.8-1.8-1.8
			c0-1.6,0.7-2.3,0.7-2.3s-0.7-0.7-0.7-2.3c0-1,0.8-1.8,1.8-1.8v-1c-1.7,0-3,1.3-3,3c0,1-0.5,1.4-1.3,1.4c-1.5,0-1.8-0.8-2.8-0.8
			c-0.8,0-1,0.7-1.5,0.7s-0.7-0.9-1.4-0.9s-0.9,0.9-1.4,0.9s-0.8-0.7-1.5-0.7c-1,0-1,0.8-2.5,0.8s-9.4,0-9.4,0v1.6h1.3h0.8h5.2v4.2
			h-1.1v-1.9h-3v1.9H644.6z"/>
		<g id="g29">
			<g id="g31">
				<path id="path33" class="st1" d="M647.3,90.3l4.6,7.9c-0.7,0.1-1.4,0.2-2.1,0.3l-0.8-1.4l-2.5,0.6l0.2-2l1.4-0.3l-1.2-2
					l-0.2,2.3l-0.2,2l-0.1,1.7c-0.7,0.1-1.4,0.3-2,0.6l0.7-9.1L647.3,90.3z"/>
			</g>
			<g id="g35">
				<path id="path37" class="st1" d="M695.4,105.8l-2.6,2.3c-0.3,0.3-0.4,0.8-0.1,1.1l1.9,2.2l-1.1,1l-2.4-2.8l-1.4,1.2l3,3.4
					c0.4,0.4,1,0.5,1.4,0.1l2.6-2.2c0.3-0.3,0.4-0.8,0.1-1.1l-1.9-2.2l1.1-1l2.5,2.8l1.4-1.2l-3.1-3.5
					C696.5,105.5,695.8,105.4,695.4,105.8z"/>
			</g>
			<g id="g39">
				<path id="path41" class="st1" d="M617.7,123c-0.2,0.5-0.5,1.1-0.8,1.6l-7.7-3.8l2.4-4.9l1.7,0.9l-1.6,3.2l1.3,0.7l1.4-2.7
					l1.7,0.9l-1.3,2.7L617.7,123z"/>
			</g>
			<g id="g43">
				<path id="path45" class="st1" d="M693.1,102.3c0.5,0.4,0.6,1.1,0.2,1.6l-4,4.9c-0.4,0.5-1.1,0.6-1.7,0.2
					c-0.7-0.6-1.4-1.2-1.6-1.4c-0.2-0.2-0.9-0.7-1.6-1.2c-0.5-0.4-0.6-1.2-0.2-1.7l4-4.9c0.4-0.5,1.1-0.6,1.7-0.2l-0.6,1.9l-3.1,3.8
					l2.1,1.7l3.1-3.8l-2.1-1.7l0.6-1.9L693.1,102.3z"/>
			</g>
			<g id="g47">
				<path id="path49" class="st1" d="M638.9,98.5l-1.7,0.8l-0.8-1.7l1.8-0.8c0.2-0.1,0.3-0.4,0.2-0.6l-0.2-0.5
					c-0.1-0.2-0.4-0.3-0.6-0.2l-1.9,0.8l0.6,1.3l0.8,1.7l1.4,3c-0.7,0.3-1.2,0.6-1.8,0.9l-3.5-7.9l5.1-2.3c0.4-0.2,0.9,0,1.1,0.4
					l1.2,2.6c0.2,0.4,0,0.8-0.4,1c0,0,0,0,0,0.1c0,0,0,0,0.1,0c0.4-0.2,0.8,0,1,0.4c0.2,0.5,0.9,2.1,1,2.2c0.1,0.2,0.2,0.6,0.8,0.5
					l0.1,0.1c-0.6,0.2-1.3,0.5-2,0.8c-0.3-0.1-0.4-0.3-0.6-0.6c-0.1-0.2-0.5-1.3-0.7-1.7C639.7,98.5,639.3,98.3,638.9,98.5z"/>
			</g>
			<g id="g51">
				<path id="path53" class="st1" d="M659,97.8v-1.9l-3.5,0.1l-0.3-6.7l-1.8,0.1l0.3,8.6C655.6,97.9,657.3,97.8,659,97.8"/>
			</g>
			<g id="g55">
				<path id="path57" class="st1" d="M621.7,113.3l1.5,1.1c-1.1,1.3-2.1,2.7-3.1,4.3l-7-5l3.2-4.4l1.5,1.1l-2.1,2.9l1.2,0.9l1.8-2.5
					l1.5,1.1l-1.8,2.5l1.2,0.9L621.7,113.3z"/>
			</g>
			<g id="g59">
				<path id="path61" class="st1" d="M624.4,113l-6.2-6.2l0.8-0.8l1.8,0.8l3.4,3.5l1.9-1.9l-3.5-3.5l-1.9,1.9L619,106l2.9-2.9
					c0.5-0.5,1.2-0.5,1.7,0l4.5,4.5c0.5,0.5,0.5,1.2,0,1.7c-0.7,0.7-1.4,1.3-1.6,1.4C626.3,110.9,625,112.3,624.4,113z"/>
			</g>
			<g id="g63">
				<path id="path65" class="st1" d="M633.8,102.7l1,1.6c-1.5,0.9-2.9,1.9-4.4,3l-4.9-7.1l4.5-3.1l1,1.6l-2.9,2l0.8,1.2l2.5-1.7
					l1,1.6l-2.5,1.7l0.9,1.3L633.8,102.7z"/>
			</g>
			<g id="g67">
				<path id="path69" class="st1" d="M662.8,98l1.5-8.6l1.1,0.2l0.4,1.9l-0.9,4.8l2.7,0.5l0.9-4.8l-2.6-0.5l-0.4-1.9l4,0.7
					c0.6,0.1,1.1,0.7,1,1.4l-1.1,6.2c-0.1,0.6-0.7,1.1-1.4,1c-0.9-0.2-1.8-0.4-2.1-0.4C665.6,98.4,663.7,98.1,662.8,98z"/>
			</g>
			<g id="g71">
				<path id="path73" class="st1" d="M676.8,99.9l-0.7,1.7c-1.6-0.7-3.2-1.3-4.9-1.9l3-8.1l5.1,1.9l-0.7,1.8l-3.3-1.2l-0.5,1.4
					l2.9,1.1l-0.7,1.8l-2.8-1.1l-0.5,1.4L676.8,99.9z"/>
			</g>
			<g id="g75">
				<path id="path77" class="st1" d="M680.7,100.2l0.9-1.7l1.8,1c0.2,0.1,0.5,0,0.6-0.2l0.3-0.5c0.1-0.2,0-0.5-0.2-0.6l-1.8-1
					l-0.7,1.3L680.7,100.2l-1.7,2.9c-0.7-0.3-1.2-0.6-1.8-0.9l4.3-7.6l5,2.8c0.4,0.2,0.5,0.7,0.3,1.1l-1.8,3.3
					c-0.2,0.4-0.7,0.5-1,0.3L680.7,100.2z"/>
			</g>
			<g id="g79">
				<path id="path81" class="st1" d="M694.7,116.8l7.1-4.8l1,1.5l-7.1,4.8c-0.2-0.2-0.3-0.5-0.5-0.8
					C695,117.3,694.8,117.1,694.7,116.8z"/>
			</g>
			<g id="g83">
				<path id="path85" class="st1" d="M704.3,119.9l-6,3.1c-0.1-0.3-0.3-0.6-0.4-0.8c-0.1-0.3-0.3-0.5-0.4-0.8l6-3.1l-0.8-1.7
					l1.7-0.8l2.5,5l-1.7,0.8L704.3,119.9z"/>
			</g>
		</g>
		<g id="g87">
			<g id="g89">
				<polygon id="polygon91" class="st1" points="609.9,127.4 609.8,129.8 612,130.6 609.8,131.3 609.6,133.6 608.3,131.7 606,132.2 
					607.5,130.4 606.2,128.4 608.4,129.2 				"/>
			</g>
			<g id="g93">
				<polygon id="polygon95" class="st1" points="706.1,127.4 706.2,129.8 704,130.6 706.2,131.3 706.4,133.6 707.7,131.7 710,132.2 
					708.5,130.4 709.7,128.4 707.6,129.2 				"/>
			</g>
		</g>
		<g id="g97">
			<g id="g99">
				<path id="path101" class="st1" d="M638.2,189.8l-0.2,0.5l-2.5-1.1l2-4.5l2.5,1.1l-0.2,0.5l1.7,0.8l0.5-1.2
					c0.3-0.6,0-1.3-0.6-1.5c-0.8-0.4-1.7-0.7-1.9-0.8s-1-0.4-1.7-0.8c-0.6-0.3-1.3,0-1.6,0.6l-2.6,5.7c-0.3,0.6,0,1.3,0.6,1.6
					l3.7,1.7c0.6,0.3,1.3,0,1.6-0.6l0.5-1.1L638.2,189.8z"/>
			</g>
			<g id="g103">
				<path id="path105" class="st1" d="M613.3,140.8l-8.6-0.5l0.1-1.8l8.6,0.6c0,0.3-0.1,0.6-0.1,0.9
					C613.3,140.2,613.3,140.5,613.3,140.8z"/>
			</g>
			<g id="g107">
				<path id="path109" class="st1" d="M613,151.5l-3.4,0.9c-0.4,0.1-0.7,0.5-0.6,1l0.7,2.8l-1.5,0.4l-0.9-3.6l-1.8,0.5l1.1,4.4
					c0.2,0.5,0.7,0.9,1.2,0.7l3.3-0.8c0.4-0.1,0.7-0.6,0.6-1L611,154l1.4-0.4l1,3.6l1.8-0.5l-1.2-4.5
					C614,151.7,613.5,151.4,613,151.5z"/>
			</g>
			<g id="g111">
				<path id="path113" class="st1" d="M608.6,148.5l5-0.5c0,0.3,0.1,0.6,0.1,0.9c0,0.3,0.1,0.6,0.1,0.9l-8.6,0.8l-0.2-1.8l5-3.8
					l-5.4,0.1v-1.8l8.6-0.2c0,0.3,0,0.6,0,0.9c0,0.3,0,0.6,0,0.9L608.6,148.5z"/>
			</g>
			<g id="g115">
				<path id="path117" class="st1" d="M610.2,166.1c0.3,0.6,1,0.9,1.5,0.6l6.8-3l-0.7-1.7l-6.2,2.7l-1.1-2.5l6.1-2.6l-0.7-1.7
					l-6.8,3c-0.6,0.3-0.9,1-0.6,1.6L610.2,166.1z"/>
			</g>
			<g id="g119">
				<polygon id="polygon121" class="st1" points="619.1,179.6 620.6,178.8 622.4,177.8 624.4,176.7 623.3,178.8 622.4,177.8 
					620.6,178.8 622.5,180.6 621.6,182.1 623.1,183.6 627.3,175.4 625.7,173.9 617.6,178.1 				"/>
			</g>
			<g id="g123">
				<path id="path125" class="st1" d="M622.7,170.3c0.3,0.4,0.2,0.9-0.2,1.1l-2.4,1.6c-0.3,0.2-0.8,0.2-1-0.2H619c0,0,0,0,0,0.1
					c0.2,0.3,0.2,0.8-0.2,1.1c-0.5,0.3-1.9,1.3-2,1.4c-0.1,0.1-0.6,0.3-0.4,0.8l-0.1,0.1l-1.2-1.8c0-0.3,0.2-0.5,0.5-0.7
					c0.2-0.2,1.2-0.8,1.6-1c0.3-0.2,0.4-0.6,0.2-1l-1-1.5l1.6-1.1l1.2,1.7c0.1,0.2,0.4,0.3,0.6,0.1l0.5-0.3c0.2-0.1,0.3-0.4,0.1-0.6
					l-1.2-1.7l-1.2,0.8l-1.6,1.1l-2.7,1.9l-1.1-1.6l7.1-4.9C620.5,167.2,621.6,169,622.7,170.3z"/>
			</g>
			<g id="g127">
				<path id="path129" class="st1" d="M647.9,188.4l0.5-1.8c-1.7-0.4-3.3-0.9-5.1-1.4l-2.4,8.3l5.2,1.5l0.5-1.8l-3.4-1l0.4-1.4
					l2.9,0.8l0.5-1.8l-2.9-0.8l0.4-1.5L647.9,188.4z"/>
			</g>
			<g id="g131">
				<path id="path133" class="st1" d="M631.2,184.7l2.8-4.1c0.2,0.2,0.5,0.3,0.8,0.5c0.2,0.2,0.5,0.3,0.7,0.5l-4.8,7.1l-1.5-1
					l0.2-6.3l-3.3,4.3l-1.4-1.1l5.3-6.8c0.2,0.2,0.5,0.4,0.7,0.6c0.2,0.2,0.5,0.4,0.7,0.5L631.2,184.7z"/>
			</g>
			<g id="g135">
				<path id="path137" class="st1" d="M662.9,196.1c-0.6,0.1-1.2-0.4-1.3-1l-0.9-6.3c-0.1-0.6,0.4-1.2,1-1.3
					c0.9-0.1,1.8-0.2,2.1-0.2c0.2,0,1.1-0.2,1.9-0.3c0.6-0.1,1.2,0.3,1.3,1l0.9,6.3c0.1,0.6-0.3,1.2-1,1.3l-0.9-1.7l-0.7-4.9
					l-2.7,0.4l0.7,4.9l2.7-0.4l0.9,1.7L662.9,196.1z"/>
			</g>
			<g id="g139">
				<path id="path141" class="st1" d="M681.6,180.9c0.4-0.2,0.9-0.1,1.1,0.3l1.7,3.3c0.2,0.4,0.1,0.8-0.3,1l-3.3,1.8l-0.9-1.7l1.8-1
					c0.2-0.1,0.3-0.4,0.2-0.6l-0.3-0.5c-0.1-0.2-0.4-0.3-0.6-0.2l-1.8,1l0.7,1.3l0.9,1.7l1.6,3c-0.7,0.4-1.2,0.6-1.7,0.9l-4.1-7.7
					C677.8,183.1,680.3,181.8,681.6,180.9z"/>
			</g>
			<g id="g143">
				<path id="path145" class="st1" d="M706.7,164.7l-6.2-2.7l-0.8,1.7L698,163c0.8-1.4,1.7-3.5,2.2-5.1l1.7,0.8l-0.7,1.7l6.2,2.7
					L706.7,164.7z"/>
			</g>
			<g id="g147">
				<path id="path149" class="st1" d="M657.5,193.9v0.5l-2.7-0.1l0.2-4.9l2.7,0.1v0.5l1.8,0.1v-1.3c0-0.7-0.5-1.2-1.1-1.2
					c-0.9,0-1.8,0-2.1,0c-0.2,0-1.1,0-1.9-0.1c-0.6-0.1-1.2,0.5-1.2,1.1l-0.2,6.3c0,0.6,0.5,1.2,1.1,1.2l4,0.2
					c0.7,0,1.2-0.5,1.2-1.1l0.1-1.2L657.5,193.9z"/>
			</g>
			<g id="g151">
				<path id="path153" class="st1" d="M673.9,184.7c0.4-0.1,0.9,0.1,1,0.6l0.8,2.7c0.1,0.4-0.1,0.8-0.5,0.9c0,0,0,0,0,0.1
					c0,0,0,0,0.1,0c0.4-0.1,0.8,0.1,1,0.5c0.2,0.6,0.7,2.2,0.7,2.4c0.1,0.2,0.2,0.6,0.7,0.6v0.1l-2.1,0.6c-0.2-0.1-0.4-0.4-0.5-0.7
					s-0.4-1.4-0.5-1.8c-0.1-0.4-0.5-0.6-0.9-0.4l-1.8,0.5l-0.6-1.8l1.9-0.6c0.2-0.1,0.4-0.3,0.3-0.6l-0.2-0.6
					c-0.1-0.2-0.3-0.4-0.6-0.3l-1.9,0.6l0.4,1.4l0.6,1.8l1,3.2l-1.9,0.6l-2.5-8.2C670.3,185.9,672.3,185.3,673.9,184.7z"/>
			</g>
			<g id="g155">
				<path id="path157" class="st1" d="M689.8,185.9c-0.5,0.4-1.2,0.3-1.6-0.2l-4-4.9c-0.4-0.5-0.3-1.3,0.2-1.7
					c0.7-0.6,1.5-1.1,1.7-1.3c0.2-0.1,0.8-0.7,1.4-1.3c0.5-0.5,1.3-0.3,1.7,0.2l4,4.9c0.4,0.5,0.3,1.2-0.2,1.7l-1.7-1l-3.1-3.8
					l-2.1,1.7l3.1,3.8l2.1-1.7l1.7,1L689.8,185.9z"/>
			</g>
			<g id="g159">
				<path id="path161" class="st1" d="M693.4,170.4c0.3-0.3,0.8-0.4,1.1-0.1l2.1,1.9c0.3,0.3,0.3,0.8,0.1,1.1v0.1h0.1
					c0.3-0.3,0.8-0.3,1.1-0.1c0.5,0.4,1.7,1.5,1.8,1.6s0.5,0.4,0.9,0.2l0.1,0.1l-1.4,1.6c-0.3,0-0.5-0.1-0.8-0.3
					c-0.2-0.2-1-1-1.4-1.3c-0.3-0.2-0.7-0.2-1,0.1l-1.2,1.4l-1.4-1.3l1.3-1.5c0.2-0.2,0.2-0.5,0-0.6l-0.4-0.4
					c-0.2-0.2-0.5-0.1-0.7,0.1l-1.3,1.5l1.1,1l1.4,1.3l2.5,2.2l-1.3,1.5l-6.4-5.7C690.9,173.3,692.3,171.8,693.4,170.4z"/>
			</g>
			<g id="g163">
				<polygon id="polygon165" class="st1" points="702.6,172.6 701.5,171.4 700.2,169.8 698.7,168.1 701,168.6 700.2,169.8 
					701.5,171.4 702.9,169.2 704.5,169.6 705.6,167.8 696.8,165.6 695.6,167.5 701.5,174.4 				"/>
			</g>
			<g id="g167">
				<path id="path169" class="st1" d="M701.3,154.8l8.2,2.5L709,159l-8.2-2.5c0.1-0.3,0.2-0.6,0.3-0.9
					C701.2,155.3,701.2,155.1,701.3,154.8z"/>
			</g>
			<g id="g171">
				<path id="path173" class="st1" d="M707.9,139.9l-5,0.2c0-0.3,0-0.6,0-0.9c0-0.3,0-0.6,0-0.9l8.6-0.3l0.1,1.8l-5.3,3.5l5.4,0.2
					v1.8l-8.6-0.3c0-0.3,0-0.6,0-0.9c0-0.3,0-0.6,0-0.9L707.9,139.9z"/>
			</g>
			<g id="g175">
				<path id="path177" class="st1" d="M710.6,153.3c-0.1,0.6-0.7,1.1-1.3,1l-6.3-1c-0.6-0.1-1.1-0.7-1-1.3c0.1-0.9,0.4-1.8,0.4-2.1
					c0-0.2,0.1-1.1,0.2-1.9c0.1-0.6,0.7-1.1,1.4-1l6.2,0.9c0.6,0.1,1.1,0.7,1,1.3l-1.9,0.4l-4.9-0.8l-0.4,2.7l4.9,0.7l0.4-2.6
					l1.9-0.4L710.6,153.3z"/>
			</g>
		</g>
		<path id="path179" class="st1" d="M645.3,124.8l-3.1,11.9h0.8l2.2-8.4v8.4h0.8v-8.4l2.2,8.4h-5.9c0.5,1.4,2.1,2.2,3.3,2.2
			s2.8-0.8,3.3-2.2l-3.1-11.9C645.8,124.8,645.3,124.8,645.3,124.8z"/>
		<path id="path181" class="st1" d="M658,119.5l1.4,0.6l-0.1,0.2c-0.7,0-0.8,1.3-0.8,1.9c0,0.4,0.4,0.9,1,0.9s1.8-0.6,3.3-0.6
			c1.6,0,3.2,0.7,4.9,0.7s2.1-0.5,2.5-0.5s1.3,0.2,1.3,0.8c0,0.6-0.9,0.8-1.3,0.8c-0.4,0-0.8-0.5-2.5-0.5s-3.3,0.7-4.9,0.7
			c-1.6,0-2.7-0.6-3.3-0.6s-1,0.5-1,0.9s0.8,1.1,0.8,1.1l-1.3,1.9l-1.2-1.9c0,0,0.8-0.7,0.8-1.1s-0.3-0.9-1-0.9
			c-0.6,0-1.8,0.6-3.3,0.6c-1.6,0-3.2-0.7-4.9-0.7s-2.1,0.5-2.5,0.5s-1.3-0.2-1.3-0.8s0.9-0.8,1.3-0.8c0.4,0,0.8,0.5,2.5,0.5
			s3.3-0.7,4.9-0.7c1.6,0,2.7,0.6,3.3,0.6s1-0.5,1-0.9c0-0.6-0.1-1.9-0.8-1.9l-0.1-0.2L658,119.5z"/>
		<path id="path183" class="st1" d="M670.7,124.8l3.1,11.9H673l-2.2-8.4v8.4H670v-8.4l-2.2,8.4h5.9c-0.5,1.4-2.1,2.2-3.3,2.2
			s-2.8-0.8-3.3-2.2l3.1-11.9C670.2,124.8,670.7,124.8,670.7,124.8z"/>
		<g id="g185">
			<path id="path187" class="st1" d="M658,133.2l25.7,25.2c0.1-0.3,0-0.9-0.1-1.6L658,131.7l-25.6,25.1c-0.2,0.7-0.2,1.3-0.1,1.6
				L658,133.2z"/>
			<polygon id="polygon189" class="st1" points="658,144.5 678.6,164.6 679.1,163.7 658,143 636.9,163.7 637.4,164.6 			"/>
			<path id="path191" class="st1" d="M688.4,125.3c1.4,0.6,3.6,3.1,2.2,4.5c-5.1-1.8-6.7,2.6-6.7,5.2c0,5.8,4.4,8.8,4.4,19.1
				c0,3.3-0.8,15.8-18,19.8c-2.7,0.6-8.5,2.2-12.3,5.7v-1.1c4.2-3.9,12.3-5.3,13.6-5.7c6.4-1.9,16-7.2,16-19c0-7.3-3-12.9-5.8-12.9
				c-1.2,0-0.8,1.4-0.1,2.4c0.4,0.6,0.9,1.5-0.2,1.3c-1.1-0.2-2.5,0.1-2.5,1.1c0,0.5,0.6,0.5,0.9,0.3c0.3-0.2,0.7-0.3,1.3-0.3
				c1.2,0,2.5,0.7,2.5,1.6s-1.6,0.5-1.6,1.2c0,0.5,3.9,3.2,3.9,6.5c0,1-0.4,0.6-0.7,0c-0.2-0.6-0.9-1.5-1.6-1.5
				c-0.6,0-1,0.2-0.7,0.8c0.3,0.5,1.4,2.2,1.4,4.5s-1.7,5.3-2.8,6.6c-0.5,0.7-0.7,0.2-0.8,0s-0.3-1-0.9-1c-0.9,0-0.4,4.4-10.5,7.1
				c-2,0.5-7.2,1.8-11.4,5.1c-4.3-3.3-9.4-4.5-11.4-5.1c-10.2-2.7-9.6-7.1-10.5-7.1c-0.5,0-0.8,0.8-0.9,1c-0.1,0.2-0.3,0.7-0.8,0
				c-1.1-1.3-2.8-4.3-2.8-6.6s1.1-3.9,1.4-4.5c0.3-0.5-0.1-0.8-0.7-0.8c-0.6,0-1.3,0.9-1.6,1.5c-0.2,0.6-0.7,1-0.7,0
				c0-3.3,3.9-6,3.9-6.5c0-0.7-1.6-0.3-1.6-1.2s1.3-1.6,2.5-1.6c0.6,0,1,0.1,1.4,0.3c0.3,0.2,0.9,0.2,0.9-0.3c0-1-1.4-1.3-2.5-1.1
				s-0.6-0.7-0.2-1.3c0.7-1,1-2.4-0.1-2.4c-2.8,0-5.8,5.7-5.8,12.9c0,11.8,9.6,17.1,16,19c1.3,0.4,9.4,1.8,13.6,5.7v1.1
				c-3.8-3.6-9.7-5.1-12.4-5.7c-17.1-4-18-16.5-18-19.8c0-10.3,4.4-13.3,4.4-19.1c0-2.5-1.6-7-6.7-5.2c-1.4-1.4,0.8-3.9,2.2-4.5
				c-0.3-1.3,4-6.7,10.9-6.7c4.5,0,7.9,2.1,12.7,2.1c1.8,0,5-0.8,6.8-1.9v1c-1.8,1.1-5,1.9-6.8,1.9c-4.7,0-8.2-2.1-12.7-2.1
				c-3.4,0-6,1.3-7.6,2.7c0.2,0,1.1,0.4,1.2,0.4c0.4,0.3,0.2,0.8-0.4,0.6c-0.4-0.1-0.9-0.4-1.4-0.5c-0.2,0.2-0.5,0.5-0.6,0.7
				c1.1,0,1.8,0.3,2.2,0.6c0.5,0.3,0.3,0.8-0.3,0.5c-0.6-0.2-1.3-0.6-2.4-0.5c-0.2,0.3-0.3,0.6-0.3,0.8l0.3,1.1
				c-0.9,0-3.3,0.9-2.9,2.4c0.8-0.2,6.6-0.1,6.6,5.8c0,1,0.4,0.9,0.4,0.6c0.6-2.7-1.2-5.7-3.5-6.7c-0.9-0.4-0.7-1.2,0.6-0.5
				c1.2,0.6,3.6,2.5,3.6,5.9c0,0.8-0.2,2.4-0.2,2.4s0.9-0.9,0.9-3.1c0-3.7-3-6.6-5.5-6.6l-0.3-1.1c1.5-0.2,6.8,1.2,6.8,8.4
				c0,1.2-0.7,4.9-1.9,6.6c1.4-0.2,4-0.1,1.9,3.5c3.1,0.6,2.3,3.7,1.3,3.7c-1.3,0-1.2-0.7-2.4-0.7c-0.9,0-1,0.6-0.5,0.8
				c0.6,0.2,1,0.6,1,1.3c0,1.3-1.9,0.6-3.5,4.4c0.6-0.2,0.9-0.3,1.3-0.3c0.4,0,1.3,0.1,1.3,0.9c0,0.8-1.6,1.9-1.6,5.1
				c0,1.6,1.7,4.6,2.1,5.1c0.5-0.5,1-0.8,1.5-0.8c1.9,0,1.7,1.5,1.7,1.9s2.2,4.2,8.3,5.7c3,0.7,9.6,2.6,11.9,4.8
				c2.3-2.2,8.9-4.1,11.9-4.8c6.2-1.5,8.3-5.3,8.3-5.7s-0.3-1.9,1.7-1.9c0.6,0,1,0.3,1.5,0.8c0.4-0.6,2.1-3.5,2.1-5.1
				c0-3.1-1.6-4.3-1.6-5.1s0.9-0.9,1.3-0.9c0.4,0,0.7,0.1,1.3,0.3c-1.6-3.8-3.5-3.1-3.5-4.4c0-0.7,0.4-1,1-1.3
				c0.5-0.2,0.4-0.8-0.5-0.8c-1.3,0-1.2,0.7-2.4,0.7c-1,0-1.7-3.1,1.3-3.7c-2.1-3.7,0.6-3.8,1.9-3.5c-1.3-1.6-1.9-5.4-1.9-6.6
				c0-4.3,1.9-6.5,3.7-7.5c-0.3-0.4-0.6-0.7-0.9-0.9c-0.5-0.5-0.1-0.8,0.4-0.5c0.3,0.2,0.7,0.6,1.1,1.1c0.2-0.1,0.5-0.2,0.7-0.3
				c-0.3-0.4-0.7-0.7-1-1c-0.4-0.4-0.1-0.8,0.4-0.6c0.2,0.1,0.7,0.4,1.3,1.4c0.4-0.1,0.8-0.1,1.1-0.1l-0.3,1.1c-2.5,0-5.5,3-5.5,6.6
				c0,2.2,0.9,3.1,0.9,3.1s-0.2-1.6-0.2-2.4c0-3.4,2.4-5.2,3.6-5.9c1.3-0.7,1.4,0.1,0.6,0.5c-2.2,1.1-4.1,4-3.5,6.7
				c0,0.3,0.4,0.4,0.4-0.6c0-5.9,5.8-6,6.6-5.8c0.5-1.5-2-2.4-2.9-2.4l0.3-1.1c-0.2-1.3-3.8-5.4-9.7-5.4c-4.5,0-7.9,2.1-12.7,2.1
				c-1.8,0-5-0.8-6.8-1.9v-1c1.8,1.1,5,1.9,6.8,1.9c4.7,0,8.2-2.1,12.7-2.1C684.4,118.6,688.6,124.1,688.4,125.3z"/>
			<path id="path193" class="st1" d="M658,142l22.2,21.8c1.8,1.4,3.1-3.1,3.4-4.3L658,134.2l-25.7,25.1l2.7,1.7v-1.3l-0.8-1l1.3-0.4
				l0.7-1l0.8,1l1.6-0.8v-1.3l-0.8-1l1.2-0.4l0.8-1.1l0.7,1.1l1.6-0.8v-1.3l-0.8-1l1.2-0.4l0.8-1.1l0.8,1.1l1.6-0.8v-1.3l-0.8-1
				l1.2-0.4l0.8-1.1l0.8,1.1l1.6-0.8v-1.3l-0.8-1l1.2-0.4l0.8-1l0.7,1l1.6-0.8v-1.3l-0.8-1l1.2-0.4l0.8-1.1l0.7,1.1l1.6-0.8v-1.3
				l-0.8-1l1.2-0.4l0.8-1l0.8,1l1.2,0.4l-0.8,1v1.3l0.4,1.2l1.3-0.4l0.7-1.1l0.7,1.1l1.3,0.4l-0.8,1v1.3l1.6,0.8l0.8-1l0.8,1
				l1.2,0.4l-0.8,1v1.3l1.6,0.8l0.7-1.1l0.7,1.1l1.3,0.4l-0.8,1v1.3l1.6,0.8l0.8-1.1l0.8,1.1l1.2,0.4l-0.8,1v1.3l1.6,0.8l0.7-1.1
				l0.7,1.1l1.2,0.4l-0.8,1v1.3l1.6,0.8l0.8-1l0.8,1l1.2,0.4l-0.8,1v1.3l-1.2-0.4l-1.2,0.4v-1.3l-0.8-1l1.2-0.4l-1.6-0.8l-1.2-0.4
				l-1.2,0.4v-1.3l-0.8-1l1.2-0.4l-1.6-0.8l-1.2-0.4l-1.2,0.4v-1.3l-0.8-1l1.3-0.4l-1.6-0.8l-1.2-0.4l-1.2,0.4v-1.3l-0.8-1l1.3-0.4
				l-1.6-0.8l-1.2-0.4l-1.2,0.4v-1.3l-0.8-1l1.2-0.4l-1.6-0.8l-1.2-0.4l-1.2,0.4v-1.3l-0.8-1l-0.4-1.2l-1.2-0.4l-1.2,0.4l-1.6,0.8
				l1.3,0.4l-0.8,1v1.3l-1.2-0.4l-1.2,0.4l-1.6,0.8l1.3,0.4l-0.8,1v1.3l-1.2-0.4l-1.2,0.4l-1.6,0.8l1.2,0.4l-0.8,1v1.3l-1.2-0.4
				l-1.2,0.4l-1.6,0.8l1.2,0.4l-0.8,1v1.3l-1.2-0.4L642,154l-1.6,0.8l1.3,0.4l-0.8,1v1.3l-1.2-0.4l-1.2,0.4l-1.6,0.8l1.3,0.4l-0.8,1
				v1.3l-1.2-0.4L635,161l-2.7-1.7c0.4,1.3,1.7,5.8,3.4,4.3L658,142z"/>
			
				<ellipse id="ellipse195" sodipodi:cx="69.596001" sodipodi:cy="16.941" sodipodi:rx="0.23999999" sodipodi:ry="0.25600001" class="st1" cx="639.9" cy="156.1" rx="2.2" ry="2.4">
			</ellipse>
			
				<ellipse id="ellipse197" sodipodi:cx="70.388" sodipodi:cy="16.172001" sodipodi:rx="0.23899999" sodipodi:ry="0.25600001" class="st1" cx="647.2" cy="149" rx="2.2" ry="2.4">
			</ellipse>
			
				<ellipse id="ellipse199" sodipodi:cx="71.18" sodipodi:cy="15.38" sodipodi:rx="0.23999999" sodipodi:ry="0.25600001" class="st1" cx="654.5" cy="141.7" rx="2.2" ry="2.4">
			</ellipse>
			
				<ellipse id="ellipse201" sodipodi:cx="71.948997" sodipodi:cy="15.38" sodipodi:rx="0.23999999" sodipodi:ry="0.25600001" class="st1" cx="661.5" cy="141.7" rx="2.2" ry="2.4">
			</ellipse>
			
				<ellipse id="ellipse203" sodipodi:cx="72.739998" sodipodi:cy="16.149" sodipodi:rx="0.23999999" sodipodi:ry="0.25600001" class="st1" cx="668.8" cy="148.8" rx="2.2" ry="2.4">
			</ellipse>
			
				<ellipse id="ellipse205" sodipodi:cx="73.510002" sodipodi:cy="16.941" sodipodi:rx="0.23999999" sodipodi:ry="0.25600001" class="st1" cx="675.9" cy="156.1" rx="2.2" ry="2.4">
			</ellipse>
		</g>
	</g>
</g>
</svg>
