<?xml version="1.0" encoding="utf-8"?>
<!-- Generator: Adobe Illustrator 19.2.1, SVG Export Plug-In . SVG Version: 6.00 Build 0)  -->
<svg version="1.1" id="Layer_1" xmlns="http://www.w3.org/2000/svg" xmlns:xlink="http://www.w3.org/1999/xlink" x="0px" y="0px"
	 viewBox="0 0 39 39" style="enable-background:new 0 0 39 39;" xml:space="preserve">
<style type="text/css">
	.st0{fill:#124C8F;}
	.st1{fill:#EEEEEE;}
</style>
<g>
	<rect x="1.3" y="2.1" class="st0" width="36.7" height="33.9"/>
	<g>
		<path id="LinkedIn__x28_alt_x29_" class="st1" d="M36.1,0H2.9C1.3,0,0,1.2,0,2.8v33.4C0,37.8,1.3,39,2.9,39h33.2
			c1.6,0,2.9-1.2,2.9-2.8V2.8C39,1.2,37.7,0,36.1,0z M11.8,32.6H5.9V15h5.9L11.8,32.6L11.8,32.6L11.8,32.6z M8.9,12.6L8.9,12.6
			c-2,0-3.3-1.3-3.3-3c0-1.7,1.3-3,3.3-3c2,0,3.3,1.3,3.3,3C12.2,11.3,10.9,12.6,8.9,12.6z M33.1,32.6h-5.9v-9.4c0-2.4-0.9-4-3-4
			c-1.6,0-2.6,1.1-3,2.1C21,21.8,21,22.3,21,22.8v9.8h-5.9c0,0,0.1-16,0-17.6H21v2.5c0.8-1.2,2.2-2.9,5.3-2.9c3.9,0,6.8,2.5,6.8,7.9
			V32.6L33.1,32.6z M20.9,17.6C20.9,17.6,21,17.5,20.9,17.6L20.9,17.6L20.9,17.6z"/>
	</g>
</g>
</svg>
