<?xml version="1.0" encoding="utf-8"?>
<!-- Generator: Adobe Illustrator 19.2.1, SVG Export Plug-In . SVG Version: 6.00 Build 0)  -->
<svg version="1.1" id="Layer_1" xmlns="http://www.w3.org/2000/svg" xmlns:xlink="http://www.w3.org/1999/xlink" x="0px" y="0px"
	 viewBox="0 0 40 40" style="enable-background:new 0 0 40 40;" xml:space="preserve">
<style type="text/css">
	.st0{fill:#EC7838;}
	.st1{fill:#DB632C;}
	.st2{fill:#E6EEFF;}
	.st3{fill:#DAE2F2;}
</style>
<path class="st0" d="M40,33.5v-27c0-1.8-0.7-3.4-1.9-4.6S35.3,0,33.5,0h-27C2.9,0,0,2.9,0,6.5v27c0,1.8,0.7,3.4,1.9,4.6
	S4.7,40,6.5,40h27C37.1,40,40,37.1,40,33.5z"/>
<path class="st1" d="M33.5,40h-27c-1.8,0-3.4-0.7-4.6-1.9L38.1,1.9C39.3,3.1,40,4.7,40,6.5v27C40,37.1,37.1,40,33.5,40z"/>
<g>
	<path class="st2" d="M13.5,30.4c0-1.1-0.4-2.1-1.1-2.8c-0.7-0.7-1.7-1.1-2.8-1.1c-2.2,0-3.9,1.8-3.9,3.9c0,1.1,0.4,2.1,1.1,2.8
		s1.7,1.1,2.8,1.1C11.7,34.4,13.5,32.6,13.5,30.4z"/>
	<path class="st2" d="M30.4,33c-1.4,0-2.6-1.2-2.6-2.6c0-5-2-9.6-5.4-12.9s-7.9-5.4-12.9-5.4C8.1,12.2,7,11,7,9.6C7,8.1,8.1,7,9.6,7
		c6.5,0,12.3,2.6,16.6,6.9S33,24,33,30.4C33,31.9,31.9,33,30.4,33z"/>
	<path class="st2" d="M20,33.1c-1.4,0-2.6-1.2-2.6-2.6c0-2.2-0.9-4.1-2.3-5.5c-1.4-1.4-3.4-2.3-5.5-2.3c-1.4,0-2.6-1.2-2.6-2.6
		s1.2-2.6,2.6-2.6c3.6,0,6.9,1.5,9.2,3.8s3.8,5.6,3.8,9.2C22.6,31.9,21.4,33.1,20,33.1z"/>
</g>
<g>
	<path class="st3" d="M9.6,34.3c-1.1,0-2.1-0.4-2.8-1.1l5.5-5.5c0.7,0.7,1.1,1.7,1.1,2.8C13.5,32.6,11.7,34.4,9.6,34.3z"/>
	<path class="st3" d="M20,33.1c-1.4,0-2.6-1.2-2.6-2.6c0-2.2-0.9-4.1-2.3-5.5l3.7-3.7c2.4,2.4,3.8,5.6,3.8,9.2
		C22.6,31.9,21.4,33.1,20,33.1z"/>
	<path class="st3" d="M30.4,33c-1.4,0-2.6-1.2-2.6-2.6c0-5-2-9.6-5.4-12.9l3.7-3.7C30.4,18.1,33,24,33,30.4C33,31.9,31.9,33,30.4,33
		z"/>
</g>
</svg>
