<?xml version="1.0" encoding="utf-8"?>
<!-- Generator: Adobe Illustrator 19.2.1, SVG Export Plug-In . SVG Version: 6.00 Build 0)  -->
<svg version="1.1" id="Layer_1" xmlns="http://www.w3.org/2000/svg" xmlns:xlink="http://www.w3.org/1999/xlink" x="0px" y="0px"
	 viewBox="0 0 40 40" style="enable-background:new 0 0 40 40;" xml:space="preserve">
<style type="text/css">
	.st0{fill:#1DA1F2;}
	.st1{fill:#FFFFFF;}
</style>
<g id="Dark_Blue">
	<path class="st0" d="M36,40H4c-2.2,0-4-1.8-4-4V4c0-2.2,1.8-4,4-4h32c2.2,0,4,1.8,4,4v32C40,38.2,38.2,40,36,40z"/>
</g>
<g id="Logo__x2014__FIXED">
	<path class="st1" d="M15.4,30.2c9.4,0,14.6-7.8,14.6-14.6c0-0.2,0-0.4,0-0.7c1-0.7,1.9-1.6,2.6-2.7c-0.9,0.4-1.9,0.7-3,0.8
		c1.1-0.6,1.9-1.6,2.3-2.8c-1,0.6-2.1,1-3.3,1.2c-0.9-1-2.3-1.6-3.7-1.6c-2.8,0-5.1,2.3-5.1,5.1c0,0.4,0,0.8,0.1,1.2
		c-4.3-0.2-8-2.3-10.6-5.4c-0.4,0.8-0.7,1.6-0.7,2.6c0,1.8,0.9,3.4,2.3,4.3c-0.8,0-1.6-0.3-2.3-0.6c0,0,0,0,0,0.1
		c0,2.5,1.8,4.6,4.1,5c-0.4,0.1-0.9,0.2-1.4,0.2c-0.3,0-0.6,0-1-0.1c0.7,2,2.6,3.5,4.8,3.6c-1.8,1.4-4,2.2-6.4,2.2
		c-0.4,0-0.8,0-1.2-0.1C9.8,29.3,12.5,30.2,15.4,30.2"/>
</g>
</svg>
