<?xml version="1.0" encoding="utf-8"?>
<!-- Generator: Adobe Illustrator 19.2.1, SVG Export Plug-In . SVG Version: 6.00 Build 0)  -->
<svg version="1.1" id="Layer_1" xmlns="http://www.w3.org/2000/svg" xmlns:xlink="http://www.w3.org/1999/xlink" x="0px" y="0px"
	 viewBox="0 0 40 40" style="enable-background:new 0 0 40 40;" xml:space="preserve">
<style type="text/css">
	.st0{fill:#EA3224;}
	.st1{fill:#FFFFFF;}
</style>
<g>
	<path class="st0" d="M3.5,0h32.9C38.4,0,40,1.6,40,3.5v33c0,1.9-1.6,3.5-3.5,3.5H3.5C1.6,40,0,38.4,0,36.5v-33C0,1.6,1.6,0,3.5,0z"
		/>
	<g>
		<path class="st1" d="M23.1,25.6c0-0.1,0-0.3-0.1-0.4c-0.1-0.2-0.2-0.3-0.4-0.3c-0.2,0-0.4,0.1-0.6,0.2c-0.1,0.1-0.1,0.1-0.1,0.1
			V30v0.1c0,0,0,0.1,0,0.1c0.1,0.1,0.3,0.3,0.5,0.3c0.3,0.1,0.6-0.1,0.6-0.4c0-0.1,0-0.2,0-0.2C23.1,28.4,23.1,27,23.1,25.6z
			 M23.1,25.6c0-0.1,0-0.3-0.1-0.4c-0.1-0.2-0.2-0.3-0.4-0.3c-0.2,0-0.4,0.1-0.6,0.2c-0.1,0.1-0.1,0.1-0.1,0.1V30v0.1
			c0,0,0,0.1,0,0.1c0.1,0.1,0.3,0.3,0.5,0.3c0.3,0.1,0.6-0.1,0.6-0.4c0-0.1,0-0.2,0-0.2C23.1,28.4,23.1,27,23.1,25.6z M28.4,18.5
			c-5.6-0.1-11.2-0.1-16.8,0c-1.9,0-3.5,1.6-3.5,3.6v8.8c0,1.9,1.6,3.5,3.5,3.6c5.6,0.1,11.2,0.1,16.8,0c1.9,0,3.5-1.6,3.5-3.6V22
			C31.9,20.1,30.4,18.5,28.4,18.5z M13.3,31.6h-1.6v-9.1H10v-1.5h5v1.5h-1.7V31.6z M19,27.8v3.8h-1.4v-0.9c-0.1,0.1-0.1,0.1-0.1,0.1
			c-0.3,0.4-0.7,0.6-1.1,0.8c-0.2,0.1-0.4,0.1-0.7,0.1c-0.3-0.1-0.5-0.2-0.6-0.5c-0.1-0.3-0.1-0.5-0.1-0.8c0-1,0-6.6,0-6.6h1.4
			c0,0,0,4,0,6c0,0.1,0,0.2,0,0.3c0.1,0.3,0.3,0.4,0.5,0.3c0.3-0.1,0.5-0.3,0.7-0.5c0,0,0-0.1,0-0.1v-5.9H19
			C19,23.7,19,26.5,19,27.8z M24.5,30.8c-0.2,0.6-0.6,0.9-1.2,0.9c-0.5,0-0.9-0.2-1.2-0.6c0,0-0.1-0.1-0.1-0.1v0.6h-1.4V20.9h1.4
			c0,1.1,0,3.5,0,3.5s0.1-0.2,0.2-0.2c0.2-0.2,0.5-0.4,0.8-0.5c0.6-0.1,1.2,0,1.5,0.7c0.2,0.4,0.2,0.8,0.2,1.2c0,1.5,0,3,0,4.5
			C24.6,30.3,24.6,30.6,24.5,30.8z M29.8,30.5c-0.2,0.7-0.8,1.1-1.5,1.2c-0.5,0.1-0.9,0.1-1.4-0.1c-0.6-0.3-0.9-0.8-1.1-1.4
			c-0.1-0.3-0.1-0.6-0.1-0.9c0-1.2,0-2.3,0-3.5c0-0.6,0.1-1.2,0.6-1.6c0.5-0.5,1.1-0.7,1.8-0.7c0.2,0,0.4,0,0.6,0.1
			c0.7,0.2,1,0.7,1.2,1.4c0.1,0.3,0.1,0.5,0.1,0.8c0,0.6,0,2,0,2h-2.7v2c0,0.4,0.3,0.6,0.6,0.6s0.6-0.3,0.6-0.6v-1h1.5
			C29.9,28.8,30,30,29.8,30.5z M28.5,25.5c0-0.4-0.3-0.6-0.6-0.6s-0.6,0.3-0.6,0.6v1.1h1.3L28.5,25.5L28.5,25.5z M23,25.2
			c-0.1-0.2-0.2-0.3-0.4-0.3c-0.2,0-0.4,0.1-0.6,0.2c-0.1,0.1-0.1,0.1-0.1,0.1V30v0.1c0,0,0,0.1,0,0.1c0.1,0.1,0.3,0.3,0.5,0.3
			c0.3,0.1,0.6-0.1,0.6-0.4c0-0.1,0-0.2,0-0.2c0-1.4,0-2.8,0-4.2C23.1,25.5,23.1,25.3,23,25.2z"/>
		<path class="st1" d="M26.7,8.3v7.9h-1.5v-0.9c-0.2,0.2-0.3,0.3-0.5,0.4c-0.3,0.2-0.6,0.4-0.9,0.5c-0.6,0.1-1-0.1-1.2-0.6
			c-0.1-0.2-0.1-0.4-0.1-0.6V8.3H24v6c0,0.1,0,0.2,0,0.2c0,0.2,0.2,0.4,0.5,0.3c0.3-0.1,0.5-0.3,0.7-0.5c0,0,0-0.1,0-0.1V8.3H26.7z"
			/>
		<path class="st1" d="M14.6,9.7c-0.3-1.3-1-4.2-1-4.2h-1.7c0,0,1.3,4.3,1.9,6.2c0,0.1,0,0.1,0,0.2v4.4h1.5v-4.4c0-0.1,0-0.1,0-0.2
			c0.6-1.9,1.9-6.2,1.9-6.2h-1.7C15.5,5.5,14.9,8.4,14.6,9.7L14.6,9.7z"/>
		<path class="st1" d="M19.2,8.1L19.2,8.1c-1.2,0-2.1,0.9-2.1,2.1v4.1c0,1.2,0.9,2.1,2.1,2.1l0,0c1.2,0,2.1-0.9,2.1-2.1v-4.1
			C21.3,9.1,20.4,8.1,19.2,8.1z M19.8,14.4c0,0.3-0.3,0.6-0.6,0.6s-0.6-0.3-0.6-0.6v-4.3c0-0.3,0.3-0.6,0.6-0.6s0.6,0.3,0.6,0.6
			V14.4z"/>
	</g>
</g>
</svg>
